<svg width="73" height="39" viewBox="0 0 73 39" fill="none" xmlns="http://www.w3.org/2000/svg">
<path d="M41.2305 22.4072H51.1295V19.9457L47.4333 18.4179V14.7256H44.162" stroke="#0754A6" stroke-width="1.8" stroke-miterlimit="10" stroke-linecap="round" stroke-linejoin="round"/>
<path d="M54.7852 26.9908V17.1023H59.6284" stroke="#0754A6" stroke-width="1.8" stroke-miterlimit="10" stroke-linecap="round" stroke-linejoin="round"/>
<path d="M59.6289 17.1022V7.5957H56.9524C55.7628 7.5957 54.8281 8.57182 54.8281 9.71769V17.1022H59.6289Z" stroke="#0754A6" stroke-width="1.8" stroke-miterlimit="10" stroke-linecap="round" stroke-linejoin="round"/>
<path d="M61.7531 27.5425H71.8645V17.1023H59.6289V26.3117" stroke="#0754A6" stroke-width="1.8" stroke-miterlimit="10" stroke-linecap="round" stroke-linejoin="round"/>
<path d="M67.9984 7.5957H59.6289V17.1022H71.8645L67.9984 7.5957Z" stroke="#0754A6" stroke-width="1.8" stroke-miterlimit="10" stroke-linecap="round" stroke-linejoin="round"/>
<path d="M71.8617 27.5425V30.5557L70.0348 33.0597H63.4922" stroke="#0754A6" stroke-width="1.8" stroke-miterlimit="10" stroke-linecap="round" stroke-linejoin="round"/>
<path d="M57.8878 37.5159C61.0553 37.5159 63.6232 34.9507 63.6232 31.7865C63.6232 28.6223 61.0553 26.0571 57.8878 26.0571C54.7202 26.0571 52.1523 28.6223 52.1523 31.7865C52.1523 34.9507 54.7202 37.5159 57.8878 37.5159Z" stroke="#0754A6" stroke-width="1.8" stroke-miterlimit="10"/>
<path d="M57.8894 34.2904C59.2737 34.2904 60.3959 33.1693 60.3959 31.7864C60.3959 30.4035 59.2737 29.2825 57.8894 29.2825C56.505 29.2825 55.3828 30.4035 55.3828 31.7864C55.3828 33.1693 56.505 34.2904 57.8894 34.2904Z" stroke="#0754A6" stroke-width="1.8" stroke-miterlimit="10"/>
<path d="M62.8555 20.8794H65.0222" stroke="#0754A6" stroke-width="1.8" stroke-miterlimit="10" stroke-linecap="round" stroke-linejoin="round"/>
<path d="M37.75 28.2215C37.75 27.0332 38.7271 26.0995 39.8742 26.0995H46.3744C47.564 26.0995 48.4986 27.0756 48.4986 28.2215V30.9376C48.4986 32.126 47.5215 33.0596 46.3744 33.0596H39.8742C38.6847 33.0596 37.75 32.0835 37.75 30.9376V28.2215Z" stroke="#0754A6" stroke-width="1.8" stroke-miterlimit="10"/>
<path d="M28.3604 37.5159C31.528 37.5159 34.0958 34.9507 34.0958 31.7865C34.0958 28.6223 31.528 26.0571 28.3604 26.0571C25.1928 26.0571 22.625 28.6223 22.625 31.7865C22.625 34.9507 25.1928 37.5159 28.3604 37.5159Z" stroke="#0754A6" stroke-width="1.8" stroke-miterlimit="10"/>
<path d="M28.3582 34.2904C29.7426 34.2904 30.8648 33.1693 30.8648 31.7864C30.8648 30.4035 29.7426 29.2825 28.3582 29.2825C26.9739 29.2825 25.8516 30.4035 25.8516 31.7864C25.8516 33.1693 26.9739 34.2904 28.3582 34.2904Z" stroke="#0754A6" stroke-width="1.8" stroke-miterlimit="10"/>
<path d="M13.2354 37.5159C16.403 37.5159 18.9708 34.9507 18.9708 31.7865C18.9708 28.6223 16.403 26.0571 13.2354 26.0571C10.0678 26.0571 7.5 28.6223 7.5 31.7865C7.5 34.9507 10.0678 37.5159 13.2354 37.5159Z" stroke="#0754A6" stroke-width="1.8" stroke-miterlimit="10"/>
<path d="M13.2354 37.5159C16.403 37.5159 18.9708 34.9507 18.9708 31.7865C18.9708 28.6223 16.403 26.0571 13.2354 26.0571C10.0678 26.0571 7.5 28.6223 7.5 31.7865C7.5 34.9507 10.0678 37.5159 13.2354 37.5159Z" stroke="#0754A6" stroke-width="1.8" stroke-miterlimit="10"/>
<path d="M13.2332 34.2904C14.6175 34.2904 15.7398 33.1693 15.7398 31.7864C15.7398 30.4035 14.6175 29.2825 13.2332 29.2825C11.8488 29.2825 10.7266 30.4035 10.7266 31.7864C10.7266 33.1693 11.8488 34.2904 13.2332 34.2904Z" stroke="#0754A6" stroke-width="1.8" stroke-miterlimit="10"/>
<path d="M12.1719 10.0573L23.4729 20.2852L28.9959 22.4072H41.2315L45.4799 11.3304L36.4307 3.13957L30.9502 1.01758H12.1719" stroke="#0754A6" stroke-width="1.8" stroke-miterlimit="10" stroke-linecap="round" stroke-linejoin="round"/>
<path d="M36.475 3.12433L30.9659 1L23.5156 20.2814L29.0247 22.4057L36.475 3.12433Z" stroke="#0754A6" stroke-width="1.8" stroke-miterlimit="10" stroke-linecap="round" stroke-linejoin="round"/>
<path d="M12.1734 14.9817V1.01904H1.0425V5.26302L6.90537 9.04016V15.6608L9.11457 17.6979L1 25.1248V28.2654L10.644 22.4087H17.8664V20.1594L12.1734 14.9817Z" stroke="#0754A6" stroke-width="1.8" stroke-miterlimit="10" stroke-linecap="round" stroke-linejoin="round"/>
</svg>
