<svg width="30" height="30" viewBox="0 0 30 30" fill="none" xmlns="http://www.w3.org/2000/svg">
<path d="M29.4864 5.36591C29.2133 2.80746 27.1928 0.786438 24.6341 0.513611C18.2176 -0.171204 11.7824 -0.171204 5.36613 0.513611C2.80746 0.786667 0.786667 2.80746 0.513611 5.36591C-0.171204 11.7822 -0.171204 18.2176 0.513611 24.6339C0.786667 27.1925 2.80746 29.2133 5.36591 29.4864C11.7822 30.1712 18.2176 30.1712 24.6341 29.4864C27.1928 29.2133 29.2133 27.1925 29.4864 24.6339C30.1712 18.2176 30.1712 11.7824 29.4864 5.36591Z" fill="url(#paint0_radial_130_250)"/>
<path d="M27.8527 6.45106C27.6105 4.18078 25.8175 2.38749 23.547 2.1451C17.8533 1.53765 12.1427 1.53765 6.44904 2.1451C4.17876 2.38749 2.38548 4.18078 2.14309 6.45106C1.53564 12.1447 1.53564 17.8553 2.14309 23.5488C2.38548 25.8193 4.17876 27.6126 6.44904 27.8547C12.1427 28.4624 17.8533 28.4624 23.5467 27.8547C25.8173 27.6126 27.6105 25.8193 27.8527 23.5488C28.4604 17.8553 28.4604 12.1447 27.8527 6.45106Z" fill="url(#paint1_linear_130_250)"/>
<path d="M0.449219 24.012C0.469818 24.2193 0.491104 24.4267 0.513306 24.6341C0.786362 27.1925 2.80716 29.2133 5.36583 29.4864C11.7821 30.1712 18.2175 30.1712 24.6338 29.4864C27.1925 29.2133 29.213 27.1925 29.4861 24.6341C29.5083 24.4267 29.5296 24.2193 29.5504 24.012H0.449219Z" fill="url(#paint2_linear_130_250)"/>
<path d="M29.485 24.6339C29.8531 21.1863 30.0229 17.7331 29.9954 14.2804L23.1381 7.42313C22.2814 6.44512 21.0301 5.83469 19.5598 5.78182C16.536 5.67287 13.5027 5.67836 10.4785 5.78228C7.9667 5.86879 6.21027 7.55703 5.75983 10.0383C5.6804 10.4764 5.6328 10.9202 5.57031 11.3615V18.6358C5.60487 18.8716 5.65569 19.1062 5.67148 19.3433C5.77219 20.8525 6.39246 22.1453 7.38557 23.0198L14.3637 29.9977C17.7882 30.0218 21.213 29.8515 24.6327 29.4864C27.1914 29.2134 29.212 27.1926 29.485 24.6339Z" fill="url(#paint3_linear_130_250)"/>
<path d="M29.4871 24.6341C29.2143 27.1923 27.1931 29.2136 24.6348 29.4864C21.2156 29.8512 17.7901 30.0217 14.3661 29.9977L7.39844 23.0301C8.20616 23.7371 9.25902 24.1676 10.4808 24.2136C13.5043 24.3272 16.5384 24.3242 19.5619 24.2152C22.2966 24.1164 24.2755 22.0924 24.3609 19.3577C24.452 16.4541 24.452 13.5429 24.3609 10.6393C24.322 9.37775 23.8791 8.26767 23.1448 7.42767L29.9978 14.2806C30.0248 17.7328 29.855 21.1864 29.4871 24.6341Z" fill="url(#paint4_linear_130_250)"/>
<path d="M18.5403 11.7515C17.6619 10.795 16.4014 10.1949 15.0005 10.1949C12.3468 10.1949 10.1953 12.3464 10.1953 15C10.1953 16.401 10.7954 17.6615 11.7519 18.5399L22.8694 29.6574C23.4579 29.6061 24.0463 29.5491 24.6343 29.4864C27.193 29.2134 29.2138 27.1926 29.4868 24.6339C29.5496 24.0459 29.6066 23.4574 29.6578 22.869L18.5403 11.7515Z" fill="url(#paint5_linear_130_250)"/>
<path d="M29.9408 18.2316L20.9933 9.28439C20.7846 9.01042 20.4557 8.83258 20.0847 8.83258C19.4534 8.83258 18.9414 9.34436 18.9414 9.97585C18.9414 10.3469 19.1192 10.6758 19.3932 10.8845L29.7808 21.2723C29.8513 20.2591 29.9046 19.2453 29.9408 18.2316Z" fill="url(#paint6_linear_130_250)"/>
<path d="M5.57031 11.3615C5.6328 10.9202 5.6804 10.4764 5.75983 10.0383C6.21004 7.55703 7.96671 5.86879 10.4785 5.78228C13.5027 5.67836 16.536 5.67287 19.5598 5.78182C22.2936 5.88024 24.2734 7.90447 24.3588 10.6391C24.4496 13.543 24.4496 16.4539 24.3588 19.3577C24.2734 22.0924 22.2943 24.1164 19.56 24.215C16.5363 24.3242 13.5022 24.327 10.4787 24.2134C7.74446 24.1107 5.85435 22.0819 5.67148 19.3431C5.65569 19.1062 5.60487 18.8713 5.57031 18.6356C5.57031 16.2108 5.57031 13.786 5.57031 11.3615ZM15.0012 22.5943C16.385 22.5943 17.7702 22.6358 19.1522 22.5847C21.319 22.5044 22.6518 21.2112 22.7023 19.0464C22.7651 16.3491 22.7651 13.648 22.7023 10.9504C22.6518 8.78612 21.3181 7.46273 19.1522 7.41672C16.4031 7.35859 13.651 7.35904 10.9019 7.41672C8.75246 7.46181 7.41579 8.75843 7.35742 10.8989C7.28326 13.6304 7.28326 16.3667 7.35742 19.0982C7.41579 21.2384 8.75246 22.5051 10.9021 22.5847C12.2667 22.6355 13.6347 22.5943 15.0012 22.5943Z" fill="url(#paint7_linear_130_250)"/>
<path d="M5.57031 11.3615C5.6328 10.9202 5.6804 10.4764 5.75983 10.0383C6.21004 7.55703 7.96671 5.86879 10.4785 5.78228C13.5027 5.67836 16.536 5.67287 19.5598 5.78182C22.2936 5.88024 24.2734 7.90447 24.3588 10.6391C24.4496 13.543 24.4496 16.4539 24.3588 19.3577C24.2734 22.0924 22.2943 24.1164 19.56 24.215C16.5363 24.3242 13.5022 24.327 10.4787 24.2134C7.74446 24.1107 5.85435 22.0819 5.67148 19.3431C5.65569 19.1062 5.60487 18.8713 5.57031 18.6356C5.57031 16.2108 5.57031 13.786 5.57031 11.3615ZM15.0012 22.5943C16.385 22.5943 17.7702 22.6358 19.1522 22.5847C21.319 22.5044 22.6518 21.2112 22.7023 19.0464C22.7651 16.3491 22.7651 13.648 22.7023 10.9504C22.6518 8.78612 21.3181 7.46273 19.1522 7.41672C16.4031 7.35859 13.651 7.35904 10.9019 7.41672C8.75246 7.46181 7.41579 8.75843 7.35742 10.8989C7.28326 13.6304 7.28326 16.3667 7.35742 19.0982C7.41579 21.2384 8.75246 22.5051 10.9021 22.5847C12.2667 22.6355 13.6347 22.5943 15.0012 22.5943Z" fill="white"/>
<path d="M15.0005 10.1951C12.3468 10.1951 10.1953 12.3464 10.1953 15C10.1953 17.6539 12.3468 19.8052 15.0005 19.8052C17.6543 19.8052 19.8056 17.6539 19.8056 15C19.8056 12.3464 17.6543 10.1951 15.0005 10.1951ZM15.0005 18.1508C13.2603 18.1508 11.8497 16.7402 11.8497 15C11.8497 13.2598 13.2603 11.8492 15.0005 11.8492C16.7406 11.8492 18.1512 13.2598 18.1512 15C18.1512 16.7402 16.7406 18.1508 15.0005 18.1508Z" fill="white"/>
<path d="M21.2277 9.97588C21.2277 10.6071 20.7159 11.1189 20.0847 11.1189C19.4534 11.1189 18.9414 10.6071 18.9414 9.97588C18.9414 9.34439 19.4534 8.83261 20.0847 8.83261C20.7159 8.83261 21.2277 9.34439 21.2277 9.97588Z" fill="white"/>
<defs>
<radialGradient id="paint0_radial_130_250" cx="0" cy="0" r="1" gradientUnits="userSpaceOnUse" gradientTransform="translate(6.14983 26.2176) scale(33.0847)">
<stop stop-color="#FAE100"/>
<stop offset="0.0544" stop-color="#FADC04"/>
<stop offset="0.1167" stop-color="#FBCE0E"/>
<stop offset="0.1829" stop-color="#FCB720"/>
<stop offset="0.2514" stop-color="#FE9838"/>
<stop offset="0.3054" stop-color="#FF7950"/>
<stop offset="0.4922" stop-color="#FF1C74"/>
<stop offset="1" stop-color="#6C1CD1"/>
</radialGradient>
<linearGradient id="paint1_linear_130_250" x1="11.5042" y1="13.0348" x2="-39.3193" y2="-15.5535" gradientUnits="userSpaceOnUse">
<stop stop-color="#A1B5D8" stop-opacity="0"/>
<stop offset="0.3094" stop-color="#90A2BD" stop-opacity="0.309804"/>
<stop offset="0.7554" stop-color="#7C8B9C" stop-opacity="0.756863"/>
<stop offset="1" stop-color="#748290"/>
</linearGradient>
<linearGradient id="paint2_linear_130_250" x1="14.9997" y1="26.4824" x2="14.9997" y2="31.1586" gradientUnits="userSpaceOnUse">
<stop stop-color="#FAE100" stop-opacity="0"/>
<stop offset="0.3068" stop-color="#FCA800" stop-opacity="0.305882"/>
<stop offset="0.6275" stop-color="#FE7300" stop-opacity="0.627451"/>
<stop offset="0.8685" stop-color="#FF5200" stop-opacity="0.866667"/>
<stop offset="1" stop-color="#FF4500"/>
</linearGradient>
<linearGradient id="paint3_linear_130_250" x1="13.2919" y1="13.2509" x2="5.86743" y2="5.82637" gradientUnits="userSpaceOnUse">
<stop stop-color="#833AB4" stop-opacity="0"/>
<stop offset="1" stop-color="#833AB4"/>
</linearGradient>
<linearGradient id="paint4_linear_130_250" x1="20.5613" y1="27.4387" x2="16.8556" y2="9.969" gradientUnits="userSpaceOnUse">
<stop stop-color="#833AB4" stop-opacity="0"/>
<stop offset="1" stop-color="#833AB4"/>
</linearGradient>
<linearGradient id="paint5_linear_130_250" x1="21.9711" y1="21.9706" x2="7.08685" y2="7.08641" gradientUnits="userSpaceOnUse">
<stop stop-color="#833AB4" stop-opacity="0"/>
<stop offset="1" stop-color="#833AB4"/>
</linearGradient>
<linearGradient id="paint6_linear_130_250" x1="23.0735" y1="12.9647" x2="18.1516" y2="8.04275" gradientUnits="userSpaceOnUse">
<stop stop-color="#833AB4" stop-opacity="0"/>
<stop offset="1" stop-color="#833AB4"/>
</linearGradient>
<linearGradient id="paint7_linear_130_250" x1="20.9552" y1="9.08497" x2="8.8195" y2="21.2206" gradientUnits="userSpaceOnUse">
<stop stop-color="#833AB4"/>
<stop offset="0.0922" stop-color="#9C3495"/>
<stop offset="0.2927" stop-color="#DC2546"/>
<stop offset="0.392" stop-color="#FD1D1D"/>
<stop offset="0.5589" stop-color="#FC6831"/>
<stop offset="0.6887" stop-color="#FC9B40"/>
<stop offset="0.7521" stop-color="#FCAF45"/>
<stop offset="0.7806" stop-color="#FDB750"/>
<stop offset="0.8656" stop-color="#FECB6A"/>
<stop offset="0.9415" stop-color="#FFD87A"/>
<stop offset="1" stop-color="#FFDC80"/>
</linearGradient>
</defs>
</svg>
