<svg width="116" height="31" viewBox="0 0 116 31" fill="none" xmlns="http://www.w3.org/2000/svg">
<path d="M12.0668 28.6591C18.7312 28.6591 24.1337 23.2566 24.1337 16.5922C24.1337 9.9279 18.7312 4.52539 12.0668 4.52539C5.40251 4.52539 0 9.9279 0 16.5922C0 23.2566 5.40251 28.6591 12.0668 28.6591Z" fill="#FF4644"/>
<path d="M41.448 24.4955L40.3318 21.6598H33.6347L32.5185 24.4955H28.3555L34.7811 9.32143C34.9017 9.01976 35.2336 8.80859 35.5352 8.80859H38.4313C38.7933 8.80859 39.0648 8.9896 39.1855 9.32143L45.6412 24.4955H41.448ZM37.0134 13.1527L34.9922 18.3112H39.0346L37.0134 13.1527Z" fill="white"/>
<path d="M68.0566 17.1053V24.466H64.2857V17.9198C64.2857 16.5924 63.4108 15.7478 62.2947 15.7478C60.907 15.7478 59.9718 16.7433 59.9718 18.7041V24.466H56.1707V17.9198C56.1707 16.5924 55.2959 15.7478 54.1495 15.7478C52.792 15.7478 51.887 16.7433 51.887 18.7041V24.466H48.0859V13.455C48.0859 13.0629 48.4479 12.7009 48.8401 12.7009H51.887V13.7869C52.6713 12.8819 53.8479 12.3389 55.3864 12.3389C57.0154 12.3389 58.4634 13.0629 59.2779 14.3299C60.2131 13.1232 61.6611 12.3389 63.4712 12.3389C66.0354 12.369 68.0566 14.2696 68.0566 17.1053Z" fill="white"/>
<path d="M83.7149 24.4953H79.944V23.53C79.039 24.3445 77.8022 24.797 76.2637 24.797C73.0961 24.797 70.4414 22.2931 70.4414 18.5826C70.4414 14.9022 73.0961 12.3682 76.2637 12.3682C77.8022 12.3682 79.039 12.8508 79.944 13.6352V12.7H83.7451V24.4953H83.7149ZM79.944 18.6128C79.944 16.8027 78.5865 15.5659 77.048 15.5659C75.419 15.5659 74.1821 16.8027 74.1821 18.6128C74.1821 20.4228 75.3888 21.6596 77.048 21.6596C78.5865 21.6295 79.944 20.4228 79.944 18.6128Z" fill="white"/>
<path d="M99.581 24.4953H95.78V23.5299C94.875 24.3444 93.6381 24.7969 92.0996 24.7969C88.932 24.7969 86.2773 22.2931 86.2773 18.5825C86.2773 14.9021 88.932 12.3681 92.0996 12.3681C93.6381 12.3681 94.875 12.8507 95.78 13.6351V7.63184H99.581V24.4953ZM95.78 18.6127C95.78 16.8026 94.4225 15.5658 92.8839 15.5658C91.2549 15.5658 90.0181 16.8026 90.0181 18.6127C90.0181 20.4227 91.2247 21.6595 92.8839 21.6595C94.3923 21.6294 95.78 20.4227 95.78 18.6127Z" fill="white"/>
<path d="M115.237 18.613C115.237 22.3235 112.251 24.8274 108.721 24.8274C105.131 24.8274 102.145 22.3537 102.145 18.613C102.145 14.9326 105.101 12.4287 108.721 12.4287C112.251 12.4287 115.237 14.9024 115.237 18.613ZM111.587 18.613C111.587 16.8029 110.199 15.5661 108.721 15.5661C107.182 15.5661 105.795 16.7728 105.795 18.613C105.795 20.4532 107.182 21.6599 108.721 21.6599C110.169 21.6297 111.587 20.4532 111.587 18.613Z" fill="white"/>
<path d="M5.07097 29.3523C5.0408 29.3222 5.01064 29.3222 4.98047 29.292C5.0408 29.3222 5.07097 29.3222 5.07097 29.3523Z" fill="#5637E3"/>
<path d="M2.32314 25.7019C2.32314 25.6718 2.29297 25.6718 2.29297 25.6416C2.29297 25.6718 2.32314 25.6718 2.32314 25.7019Z" fill="#5637E3"/>
<path d="M34.754 0C34.2411 0.271504 33.9093 0.754178 33.3965 1.02568C33.3965 0.995515 33.3965 0.965348 33.3965 0.935181C33.2456 1.02568 33.2758 1.08602 33.2155 1.17652C33.1853 1.23685 33.0646 1.29719 33.0043 1.29719C32.9138 1.29719 32.9741 1.29719 32.944 1.23685C32.944 1.26702 32.0389 1.90053 31.9183 1.99103C31.7373 2.14187 31.5864 2.26253 31.4054 2.41337C31.2546 2.53404 31.1038 2.77538 30.9529 2.86588C30.8624 2.92621 30.7418 2.92621 30.6211 3.01671C30.4703 3.10721 30.3496 3.22788 30.1988 3.31838C30.0781 3.40888 29.9273 3.43905 29.8368 3.49939C29.6557 3.65022 29.6256 3.86139 29.5351 4.01223C29.3842 4.19323 29.1127 4.34407 28.9317 4.46473C28.7206 4.61557 28.5396 4.76641 28.3586 4.94741C27.9664 5.27925 27.544 5.61108 27.1519 5.94292C26.3977 6.6066 25.6435 7.30044 24.9195 7.99429C24.4972 8.38646 24.0748 8.8088 23.6223 9.20097C23.4112 9.38197 23.2302 9.56298 23.019 9.77415C22.8983 9.89482 22.8078 9.98532 22.7173 10.106C22.657 10.2267 22.5665 10.3775 22.5061 10.4982C22.4458 8.92947 21.2693 7.36078 19.6101 7.30044C19.6403 7.24011 19.6403 7.20994 19.6704 7.14961C18.1922 6.99877 16.7744 7.20994 15.3867 7.81328C14.1197 8.35629 12.9733 9.1708 12.008 10.1362C11.827 9.50264 11.5856 8.8088 11.2236 8.23562C11.1331 8.11495 11.0426 7.96412 10.9521 7.84345C10.922 7.81328 10.7711 7.54178 10.8013 7.72278C10.7108 7.24011 10.3186 6.66693 9.98679 6.3351C10.017 6.3351 10.0471 6.36526 10.0773 6.39543C9.89629 6.06359 9.59461 5.94292 9.32311 5.70159C9.20244 5.61108 9.11194 5.43008 8.99127 5.36975C8.8706 5.30941 8.71977 5.24908 8.5991 5.18875C8.4181 5.06808 8.23709 5.00774 8.02592 4.94741C7.93542 4.91724 7.84492 4.88707 7.75442 4.88707C7.69409 4.88707 7.54325 4.91724 7.48291 4.88707C7.42258 4.85691 7.39241 4.79657 7.36225 4.76641C7.27174 4.73624 7.15108 4.73624 7.06058 4.73624C6.84941 4.70607 6.63824 4.73624 6.42707 4.73624C5.64272 4.79657 4.82821 5.06808 4.16453 5.52058C3.83269 5.76192 3.56119 6.09376 3.25952 6.39543C2.92768 6.72727 2.59584 7.08927 2.41484 7.54178C2.32434 7.75295 2.29417 7.90379 2.20367 8.08479C2.083 8.26579 1.9925 8.44679 1.902 8.6278C1.69083 9.0803 1.50982 9.56298 1.44949 10.0457C1.44949 10.0155 1.44949 9.98532 1.44949 9.95515C1.29865 10.5283 1.17799 11.1317 1.11765 11.7048C1.08749 11.9462 1.08749 12.1875 1.11765 12.3987C1.11765 12.4289 1.14782 12.5194 1.14782 12.5495C1.11765 12.64 1.11765 12.6099 1.05732 12.7004C0.966817 12.821 0.906482 12.8814 0.846148 13.0322C0.755647 13.2434 0.695312 13.4847 0.695312 13.6959C0.695312 13.9674 0.72548 14.2087 0.72548 14.4802C0.72548 15.0534 0.695312 15.6266 0.785814 16.1997C0.815981 16.3807 0.755647 16.5014 0.755647 16.7126C0.755647 16.8634 0.755647 17.0143 0.72548 17.1651C0.72548 17.2254 0.695312 17.1651 0.695312 17.2556C0.695312 17.3159 0.72548 17.4064 0.72548 17.4668C0.755647 17.6176 0.785814 17.7684 0.815981 17.9193C0.876315 18.2511 0.936649 18.5829 0.996984 18.9148C1.23832 20.2421 1.47966 21.5695 1.75116 22.8968C1.902 23.6209 2.05283 24.3449 2.23384 25.099C2.264 25.28 2.29417 25.4611 2.3545 25.6421C2.41484 25.7929 2.50534 25.8834 2.65618 25.9739C2.92768 26.1549 3.41035 26.5169 3.38019 26.4566C3.68186 26.8789 3.92319 27.9046 3.86286 27.8443C4.22487 28.1158 4.34553 28.6286 4.73771 28.9303C4.82821 28.9906 4.94888 29.0208 5.00921 29.0811C5.03938 29.1113 4.97904 29.1414 5.03938 29.1716C5.12988 29.2319 5.28071 29.4733 5.16005 29.4129C6.69857 30.5593 8.65943 30.499 10.2281 29.4129C11.7063 28.3873 12.6717 26.7884 13.6672 25.3404C14.3309 24.375 15.0247 23.4399 15.7487 22.5047C15.7487 22.565 15.7487 22.6253 15.7185 22.6857C15.8392 22.4142 15.9297 22.1427 16.0504 21.841C16.0805 21.8712 16.0805 21.9315 16.0805 21.9918C16.8951 21.2377 17.2269 20.1516 17.8906 19.2768C17.9509 19.3371 17.9509 19.4578 18.0414 19.4578C18.1319 19.4578 18.1621 19.2466 18.1922 19.1561C18.2827 18.9751 18.4034 18.8545 18.5542 18.7338C18.8559 18.4924 19.0068 18.2813 18.7956 17.9193C18.8861 17.9193 18.9766 18.0098 19.0068 18.1003C19.7911 16.6523 20.6056 15.2344 21.5106 13.8769C21.7218 13.5752 21.9028 13.2735 22.114 12.9719C22.2045 12.821 22.3251 12.6702 22.4156 12.4892C22.5061 12.3082 22.5061 12.097 22.5363 11.8858C22.5665 11.6445 22.5665 11.4937 22.7173 11.3127C22.838 11.1618 22.9586 11.0412 23.0793 10.8903C23.3508 10.5887 23.6223 10.287 23.924 9.98532C23.924 10.0457 24.1352 9.83448 24.1352 9.86465C24.5877 9.77415 24.8592 9.32164 25.1005 8.9898C25.2212 8.83897 25.3117 8.68813 25.4625 8.59763C25.5229 8.56746 25.6435 8.5373 25.6737 8.50713C25.7642 8.38646 25.6737 8.26579 25.553 8.23562C26.3675 7.42111 27.182 6.63677 28.0267 5.85242C28.4491 5.46025 28.8714 5.06808 29.2636 4.6759C29.4747 4.4949 29.6859 4.28373 29.8669 4.10273C29.9876 3.98206 30.2893 3.55972 30.4703 3.77089C31.1038 3.04688 31.8278 2.41337 32.582 1.84019C32.9741 1.53852 33.3663 1.26702 33.7283 0.995515C33.849 0.905014 34.8445 0.150836 34.8445 0.150836C34.754 0 34.6937 0.0603342 34.6937 0.0603342C34.6937 0.0301671 34.7238 0.0301671 34.754 0C34.1808 0.271504 34.573 0.120668 34.754 0ZM18.8258 8.05462C19.7308 8.17529 20.5754 8.5373 21.2995 9.11047C21.4805 9.26131 21.6313 9.38197 21.752 9.62331C21.8425 9.83448 21.9028 10.0457 21.933 10.2568C21.9631 10.468 21.9631 10.6792 21.933 10.8903C21.933 10.9808 21.933 11.1015 21.8726 11.192C21.8123 11.3127 21.6615 11.4032 21.571 11.4937C21.1788 11.8255 20.7263 12.1272 20.3341 12.4289C20.1229 12.5797 19.9419 12.7607 19.7609 12.9115C19.6704 13.002 19.5799 13.0925 19.4894 13.2132C19.4291 13.2735 19.3688 13.4244 19.3084 13.3037C19.1576 13.6355 18.9163 13.9372 18.7051 14.2087C18.5844 14.3294 18.4939 14.4501 18.3732 14.5707C18.2526 14.6612 18.0716 14.7819 18.0112 14.9026C17.9207 15.0534 17.9509 15.2646 17.8906 15.4456C17.8302 15.5662 17.7096 15.6266 17.5889 15.6869C17.3777 15.8377 17.1967 15.9886 17.0157 16.1394C15.5979 17.2556 14.4214 18.5829 13.0638 19.7896C11.8571 20.8455 10.198 21.8108 8.62927 20.936C8.35776 20.7851 8.08626 20.5438 7.93542 20.2421C7.78459 19.9706 7.81475 19.6388 7.84492 19.3371C7.93542 18.5226 8.38793 17.7986 8.74993 17.1048C9.62478 15.4757 11.827 12.4289 11.7666 12.5495C11.9175 12.3384 12.0985 12.1573 12.3097 11.9763C12.3097 12.097 12.37 12.1875 12.37 12.3082C12.37 12.3384 12.3398 12.3384 12.3398 12.3384C12.3097 12.5194 12.4002 12.64 12.37 12.7909C12.37 12.9115 12.2795 13.6959 12.2795 13.726C12.2493 13.7562 12.2493 13.8165 12.2192 13.8467C12.189 13.8467 12.0683 14.5104 12.2192 14.5104C12.3097 14.5104 12.2795 14.1484 12.3097 14.0579C12.37 13.8165 12.4002 13.545 12.4605 13.2735C12.5208 12.9719 12.4605 12.6702 12.4303 12.3685C12.4303 12.278 12.4303 12.1875 12.4303 12.097C12.4303 12.0367 12.37 11.8858 12.4002 11.8255C12.4303 11.7652 12.5812 11.6445 12.6415 11.6143C13.1845 11.1317 17.1062 7.81328 18.8258 8.05462ZM20.3341 14.1785C19.3688 15.8076 18.3431 17.4064 17.3476 19.0355C17.3174 19.0053 17.2872 19.0053 17.2571 18.9751C16.4727 20.393 15.4169 21.6298 14.361 22.8365C13.8482 23.4399 13.3353 24.0432 12.8527 24.6465C12.6113 24.9784 12.3398 25.3102 12.0985 25.6421C11.8571 26.0041 11.5555 26.3359 11.2538 26.6677C10.2281 27.8744 8.9611 29.3224 7.21141 29.2319C6.3969 29.2018 5.64272 28.8096 5.06954 28.2364C4.52654 27.6934 4.25503 26.9392 3.89303 26.3057C3.47069 25.5515 2.98801 24.7974 2.62601 24.013C2.264 23.2287 2.083 22.4745 2.02267 21.5997C1.902 19.8198 1.72099 18.0399 1.60033 16.2902C1.47966 14.5707 1.44949 12.7607 1.69083 11.0412C1.8115 10.1965 2.14333 9.29147 2.47517 8.50713C2.77684 7.75295 3.19918 7.05911 3.74219 6.48593C4.91871 5.27925 6.7589 4.55523 8.35776 5.39991C9.11194 5.82225 9.71528 6.27476 10.198 7.02894C10.741 7.81328 11.1331 8.65796 11.4951 9.56298C11.4951 9.53281 11.4951 9.50264 11.4951 9.47248C11.5253 9.62331 11.5856 9.74398 11.6158 9.89482C11.646 9.98532 11.7968 10.2267 11.7666 10.3172C11.7365 10.4077 11.5555 10.5585 11.4951 10.6188C11.4046 10.7093 11.3141 10.83 11.2236 10.9205C11.0426 11.1317 10.8616 11.3428 10.6505 11.554C10.4695 11.735 10.4996 11.7048 10.3186 11.554C9.65495 13.3942 6.90974 13.907 6.87957 16.0791C6.81924 15.9886 6.72874 15.8981 6.6684 15.8076C6.93991 16.2601 6.45723 17.1048 6.45723 17.2254C6.42707 17.3763 6.5779 17.6176 6.5779 17.7986C6.5779 18.1304 6.45723 18.4321 6.33656 18.7639C6.18573 19.1561 6.03489 19.5181 6.09523 19.9405C6.15556 20.3025 6.3969 20.6645 6.72874 20.8153C6.72874 20.8153 6.63824 20.8153 6.5779 20.8153C6.87957 21.0265 7.36225 21.1773 7.57342 21.5393C7.51308 21.5393 7.45275 21.6298 7.36225 21.6298C7.69408 22.2633 8.4181 22.565 9.08177 22.5348C9.92645 22.5047 10.6505 22.1125 11.4348 21.8108C11.4348 21.9315 11.4046 22.0522 11.4046 22.203C11.646 21.8108 12.1588 21.5997 12.551 21.3583C12.9733 21.117 13.3655 20.8455 13.6672 20.4231C13.6973 20.4835 13.7275 20.5136 13.7577 20.574C13.818 20.4231 13.8482 20.2723 13.9085 20.0913C13.9688 20.1516 14.0292 20.212 14.0895 20.2723C14.2102 20.3628 14.1498 20.393 14.3007 20.3025C14.6024 20.1215 14.8739 19.9103 15.1152 19.6388C15.5979 19.126 15.9297 18.5528 16.3822 18.0399C16.4425 18.1304 16.5029 18.2209 16.5632 18.3114C16.8649 17.1953 18.0112 16.7428 18.5844 15.8076C18.5844 15.8377 18.6146 15.8679 18.6146 15.8981C19.3688 15.1741 20.0626 14.3595 20.7564 13.5752C20.5754 13.7562 20.4548 13.9674 20.3341 14.1785C19.3386 15.8377 20.4548 13.9674 20.3341 14.1785Z" fill="#5637E3"/>
</svg>
